<svg xmlns="http://www.w3.org/2000/svg" width="250" height="40" viewBox="0 0 250 40">
<path d="M 169,30 Z" fill="#ffffff" />
<path d="M 192,27 L 191,28 L 192,29 L 194,29 L 194,27 Z" fill="#ffffff" />
<path d="M 210,23 L 210,25 Z" fill="#ffffff" />
<path d="M 114,23 L 114,27 L 113,28 L 112,28 L 112,29 L 118,29 L 119,28 L 118,28 L 117,29 L 114,29 L 113,28 L 114,27 Z" fill="#ffffff" />
<path d="M 237,22 L 237,26 Z" fill="#ffffff" />
<path d="M 196,21 L 196,24 L 197,25 L 197,26 L 200,29 L 205,29 L 206,28 L 207,28 L 208,27 L 208,25 L 207,25 L 204,28 L 201,28 L 199,26 L 198,27 L 197,26 L 197,25 L 198,24 L 198,21 L 198,24 L 197,25 L 196,24 Z" fill="#ffffff" />
<path d="M 74,21 L 74,22 L 81,22 L 81,21 Z" fill="#ffffff" />
<path d="M 235,20 L 235,27 L 234,28 L 233,28 L 233,29 L 239,29 L 240,30 L 247,30 L 247,29 L 246,29 L 245,28 L 245,21 L 245,29 L 244,30 L 242,30 L 241,29 L 240,29 L 239,28 L 237,28 L 236,29 L 235,29 L 234,28 L 235,27 Z" fill="#ffffff" />
<path d="M 199,19 Z" fill="#ffffff" />
<path d="M 197,19 Z" fill="#ffffff" />
<path d="M 123,19 L 123,21 Z" fill="#ffffff" />
<path d="M 232,16 L 233,16 Z" fill="#ffffff" />
<path d="M 226,16 L 225,17 L 224,17 L 224,18 L 226,18 L 227,19 L 227,27 L 226,28 L 225,28 L 224,29 L 231,29 L 231,28 L 230,28 L 229,27 L 229,20 L 231,18 L 234,18 L 235,17 L 237,19 L 237,20 L 237,19 L 238,18 L 239,18 L 240,17 L 241,17 L 243,19 L 243,28 L 243,20 L 244,19 L 244,18 L 242,16 L 239,16 L 238,17 L 237,17 L 236,18 L 235,17 L 234,18 L 231,18 L 230,17 L 228,17 L 227,16 Z" fill="#ffffff" />
<path d="M 151,16 L 150,17 L 150,19 L 149,20 L 149,22 L 147,24 L 147,25 L 146,26 L 146,27 L 147,28 L 147,29 L 148,29 L 146,27 L 146,26 L 147,25 L 148,25 L 149,26 L 149,27 L 149,25 L 150,24 L 150,22 L 151,21 L 152,22 L 152,23 L 152,22 L 153,21 L 154,22 L 154,24 L 153,25 L 153,27 L 154,28 L 154,29 L 154,28 L 153,27 L 153,25 L 154,24 L 154,22 L 153,21 L 153,19 L 153,20 L 152,21 L 150,19 L 150,17 L 151,16 L 152,17 Z" fill="#ffffff" />
<path d="M 131,16 L 129,18 L 129,21 L 130,21 L 131,22 L 130,23 L 129,23 L 129,24 L 128,25 L 128,27 L 129,28 L 128,29 L 126,29 L 125,28 L 125,19 L 125,28 L 126,29 L 125,30 L 124,30 L 123,29 L 123,28 L 122,29 L 121,29 L 121,30 L 128,30 L 128,29 L 129,28 L 130,29 L 131,29 L 132,30 L 133,30 L 134,29 L 136,29 L 137,28 L 138,29 L 139,28 L 140,29 L 141,29 L 141,27 L 140,27 L 138,29 L 136,27 L 135,28 L 131,28 L 130,27 L 130,25 L 131,24 L 130,23 L 131,22 L 132,22 L 133,23 L 134,23 L 135,24 L 136,24 L 136,23 L 137,22 L 138,23 L 138,26 L 138,23 L 137,22 L 137,21 L 138,20 L 138,18 L 136,16 Z" fill="#ffffff" />
<path d="M 111,16 L 111,17 L 114,17 L 115,16 L 116,17 L 117,17 L 118,18 L 117,19 L 117,20 L 116,21 L 116,27 L 116,21 L 117,20 L 117,19 L 119,17 L 122,17 L 123,16 L 124,17 L 123,16 L 118,16 L 117,17 L 116,16 Z" fill="#ffffff" />
<path d="M 43,16 L 41,18 L 41,20 L 43,22 L 40,25 L 39,24 L 39,21 L 39,24 L 40,25 L 40,27 L 42,29 L 43,29 L 44,28 L 45,28 L 46,29 L 45,30 L 46,29 L 48,29 L 49,28 L 50,29 L 51,28 L 52,29 L 61,29 L 61,28 L 59,28 L 58,27 L 58,20 L 60,18 L 61,18 L 62,19 L 61,20 L 61,21 L 63,21 L 64,20 L 64,19 L 65,18 L 67,18 L 66,18 L 65,17 L 66,16 L 68,16 L 69,17 L 69,19 L 68,20 L 68,26 L 70,28 L 69,29 L 68,29 L 67,28 L 65,28 L 65,29 L 72,29 L 72,28 L 70,28 L 69,27 L 69,16 L 65,16 L 64,17 L 63,17 L 62,16 L 60,16 L 59,17 L 58,16 L 53,16 L 53,17 L 55,17 L 56,18 L 56,27 L 55,28 L 54,27 L 53,27 L 52,28 L 51,27 L 51,20 L 51,28 L 50,29 L 48,27 L 49,26 L 49,25 L 48,24 L 49,23 L 49,19 L 50,18 L 48,16 Z" fill="#ffffff" />
<path d="M 215,15 L 214,16 L 213,16 L 210,19 L 210,21 L 210,19 L 211,18 L 212,19 L 212,20 L 212,19 L 214,17 L 219,17 L 220,18 L 220,19 L 221,20 L 221,24 L 222,25 L 222,26 L 221,27 L 220,26 L 218,28 L 215,28 L 214,29 L 213,29 L 212,28 L 213,27 L 212,26 L 212,24 L 212,26 L 211,27 L 213,29 L 214,29 L 215,28 L 216,28 L 217,29 L 216,30 L 217,29 L 219,29 L 222,26 L 222,25 L 223,24 L 223,21 L 223,24 L 222,25 L 221,24 L 221,20 L 222,19 L 222,18 L 220,16 L 219,16 L 218,15 Z" fill="#ffffff" />
<path d="M 167,15 L 163,19 L 162,18 L 162,17 L 156,17 L 156,18 L 157,18 L 158,19 L 158,20 L 157,21 L 157,22 L 158,23 L 158,24 L 157,25 L 156,24 L 156,25 L 155,26 L 156,25 L 157,26 L 157,27 L 156,28 L 156,29 L 156,28 L 157,27 L 157,25 L 158,24 L 158,23 L 159,22 L 159,21 L 158,20 L 158,18 L 159,17 L 160,17 L 161,18 L 160,19 L 161,18 L 162,18 L 163,19 L 163,26 L 166,29 L 167,29 L 168,28 L 170,28 L 171,29 L 172,29 L 174,27 L 174,26 L 175,25 L 175,23 L 174,23 L 173,22 L 174,21 L 173,20 L 174,19 L 174,18 L 171,15 Z" fill="#ffffff" />
<path d="M 141,15 L 140,16 L 141,17 L 142,17 L 143,18 L 143,19 L 144,20 L 144,22 L 145,23 L 145,24 L 145,23 L 146,22 L 146,21 L 146,22 L 145,23 L 144,22 L 144,20 L 145,19 L 145,18 L 147,16 L 146,15 Z" fill="#ffffff" />
<path d="M 102,15 L 101,16 L 100,16 L 98,18 L 98,19 L 97,20 L 97,25 L 98,26 L 98,27 L 99,28 L 98,27 L 98,26 L 99,25 L 102,28 L 101,29 L 102,29 L 103,30 L 102,29 L 103,28 L 104,28 L 105,29 L 106,29 L 107,28 L 108,28 L 109,27 L 109,26 L 110,25 L 110,20 L 110,25 L 109,26 L 108,25 L 108,19 L 109,18 L 107,16 L 106,17 L 102,17 L 101,16 L 102,15 L 105,15 Z" fill="#ffffff" />
<path d="M 207,14 L 206,15 L 201,15 L 200,16 L 199,16 L 198,17 L 199,16 L 200,17 L 201,17 L 202,16 L 204,16 L 206,18 L 206,20 L 208,20 L 208,15 Z" fill="#ffffff" />
<path d="M 68,11 L 67,12 L 67,13 L 68,14 L 69,13 L 68,14 L 67,13 L 67,12 L 68,11 L 69,11 Z" fill="#ffffff" />
<path d="M 21,11 L 20,12 L 20,13 L 20,12 L 21,11 L 22,11 L 23,12 L 23,13 L 23,12 L 22,11 Z" fill="#ffffff" />
<path d="M 174,5 L 173,6 L 174,6 L 175,7 L 176,7 L 177,8 L 177,29 L 178,29 L 179,28 L 180,29 L 181,29 L 182,28 L 183,29 L 185,29 L 184,28 L 185,27 L 186,27 L 187,28 L 188,27 L 188,26 L 189,25 L 189,20 L 188,19 L 188,18 L 186,16 L 181,16 L 180,17 L 179,16 L 179,6 L 178,5 Z" fill="#ffffff" />
<path d="M 83,5 L 82,6 L 82,7 L 84,7 L 85,8 L 85,27 L 84,28 L 83,28 L 83,29 L 90,29 L 89,28 L 88,28 L 87,27 L 87,24 L 88,23 L 90,23 L 91,24 L 91,25 L 91,24 L 90,23 L 91,22 L 92,22 L 93,23 L 93,29 L 92,30 L 93,31 L 94,31 L 96,29 L 96,28 L 95,28 L 94,29 L 93,28 L 93,23 L 92,22 L 91,22 L 90,21 L 93,18 L 95,18 L 96,17 L 95,16 L 90,16 L 90,19 L 88,21 L 87,20 L 87,6 L 86,5 Z" fill="#ffffff" />
<path d="M 24,5 L 23,6 L 24,7 L 25,7 L 24,6 L 25,5 L 28,5 L 29,6 L 29,18 L 30,19 L 32,17 L 34,17 L 37,20 L 37,25 L 34,28 L 31,28 L 29,26 L 29,21 L 29,26 L 30,27 L 28,29 L 27,28 L 27,7 L 27,29 L 28,29 L 29,28 L 30,29 L 31,29 L 32,28 L 33,29 L 35,29 L 36,28 L 37,28 L 37,27 L 38,26 L 37,25 L 37,20 L 38,19 L 38,18 L 36,16 L 31,16 L 30,17 L 29,16 L 29,6 L 28,5 Z" fill="#ffffff" />
<path d="M 2,5 L 2,7 L 4,7 L 5,8 L 5,27 L 4,28 L 2,28 L 2,29 L 9,29 L 9,28 L 7,28 L 6,29 L 5,29 L 4,28 L 5,27 L 5,7 L 6,6 L 7,7 L 7,18 L 8,19 L 7,20 L 7,22 L 7,20 L 9,18 L 12,18 L 13,19 L 14,18 L 15,19 L 15,20 L 14,21 L 14,29 L 13,30 L 11,30 L 11,31 L 18,31 L 18,30 L 19,29 L 25,29 L 25,28 L 24,28 L 23,27 L 23,17 L 22,16 L 19,16 L 18,17 L 18,18 L 20,18 L 21,19 L 21,27 L 20,28 L 19,28 L 17,30 L 16,30 L 15,31 L 14,31 L 13,30 L 14,29 L 14,22 L 15,21 L 15,19 L 14,18 L 14,17 L 13,17 L 12,18 L 11,18 L 10,17 L 11,16 L 10,17 L 8,17 L 7,16 L 7,7 L 6,6 L 6,5 Z" fill="#ffffff" />
</svg>