<svg xmlns="http://www.w3.org/2000/svg" width="500" height="500" viewBox="0 0 500 500">
<path d="M 127,26 L 126,27 L 125,27 L 122,30 L 122,31 L 121,32 L 121,33 L 120,34 L 120,35 L 119,36 L 119,37 L 118,38 L 118,40 L 117,41 L 117,42 L 116,43 L 116,45 L 115,46 L 115,48 L 114,49 L 114,52 L 113,53 L 113,56 L 112,57 L 112,60 L 111,61 L 111,65 L 110,66 L 110,71 L 109,72 L 109,80 L 108,81 L 108,121 L 109,122 L 109,124 L 108,125 L 108,126 L 107,127 L 107,128 L 106,129 L 106,130 L 105,131 L 105,132 L 104,133 L 104,134 L 103,135 L 103,136 L 102,137 L 102,138 L 101,139 L 101,141 L 100,142 L 100,144 L 99,145 L 99,147 L 98,148 L 98,151 L 97,152 L 97,155 L 95,157 L 93,157 L 92,158 L 86,158 L 85,159 L 81,159 L 80,160 L 77,160 L 76,161 L 73,161 L 72,162 L 69,162 L 68,163 L 66,163 L 65,164 L 62,164 L 61,165 L 60,165 L 59,166 L 57,166 L 56,167 L 54,167 L 53,168 L 52,168 L 51,169 L 50,169 L 49,170 L 48,170 L 47,171 L 46,171 L 45,172 L 45,177 L 47,179 L 50,179 L 51,178 L 53,178 L 54,177 L 55,177 L 56,176 L 57,176 L 58,175 L 60,175 L 61,174 L 63,174 L 64,173 L 66,173 L 67,172 L 69,172 L 70,171 L 72,171 L 73,170 L 76,170 L 77,169 L 80,169 L 81,168 L 85,168 L 86,167 L 90,167 L 91,166 L 95,166 L 96,167 L 96,172 L 97,173 L 97,175 L 96,176 L 93,176 L 92,177 L 90,177 L 89,178 L 87,178 L 86,179 L 83,179 L 82,180 L 80,180 L 79,181 L 78,181 L 77,182 L 75,182 L 74,183 L 72,183 L 71,184 L 70,184 L 69,185 L 68,185 L 67,186 L 66,186 L 65,187 L 64,187 L 63,188 L 62,188 L 60,190 L 59,190 L 56,193 L 56,196 L 58,198 L 61,198 L 62,197 L 63,197 L 64,196 L 65,196 L 66,195 L 67,195 L 68,194 L 69,194 L 70,193 L 71,193 L 72,192 L 74,192 L 75,191 L 76,191 L 77,190 L 79,190 L 80,189 L 81,189 L 82,188 L 84,188 L 85,187 L 87,187 L 88,186 L 89,186 L 90,185 L 93,185 L 94,184 L 96,184 L 97,183 L 99,183 L 101,185 L 101,186 L 102,187 L 102,188 L 103,189 L 103,190 L 104,191 L 104,192 L 105,193 L 105,194 L 104,195 L 103,195 L 102,196 L 101,196 L 100,197 L 99,197 L 98,198 L 97,198 L 96,199 L 95,199 L 94,200 L 93,200 L 91,202 L 90,202 L 89,203 L 88,203 L 85,206 L 84,206 L 80,210 L 80,214 L 82,216 L 85,216 L 87,214 L 88,214 L 90,212 L 91,212 L 94,209 L 95,209 L 96,208 L 97,208 L 98,207 L 99,207 L 101,205 L 102,205 L 103,204 L 104,204 L 105,203 L 106,203 L 107,202 L 108,202 L 109,201 L 110,201 L 121,212 L 122,212 L 125,215 L 126,215 L 128,217 L 129,217 L 131,219 L 132,219 L 134,221 L 135,221 L 136,222 L 137,222 L 138,223 L 139,223 L 140,224 L 141,224 L 142,225 L 143,225 L 144,226 L 145,226 L 146,227 L 147,227 L 148,228 L 149,228 L 150,229 L 152,229 L 153,230 L 154,230 L 155,231 L 157,231 L 158,232 L 159,232 L 160,233 L 161,233 L 162,234 L 161,235 L 161,236 L 159,238 L 159,239 L 158,240 L 158,241 L 156,243 L 156,244 L 155,245 L 155,246 L 154,247 L 90,247 L 89,248 L 87,248 L 86,249 L 85,249 L 84,250 L 83,250 L 82,251 L 81,251 L 79,253 L 79,254 L 77,256 L 77,257 L 76,258 L 76,259 L 75,260 L 75,272 L 76,273 L 76,277 L 77,278 L 77,283 L 78,284 L 78,288 L 79,289 L 79,293 L 80,294 L 80,299 L 81,300 L 81,305 L 82,306 L 82,311 L 83,312 L 83,317 L 84,318 L 84,323 L 85,324 L 85,329 L 86,330 L 86,335 L 87,336 L 87,341 L 88,342 L 88,347 L 89,348 L 89,353 L 90,354 L 90,359 L 91,360 L 91,366 L 92,367 L 92,372 L 93,373 L 93,378 L 94,379 L 94,384 L 95,385 L 95,390 L 96,391 L 96,396 L 97,397 L 97,402 L 98,403 L 98,408 L 99,409 L 99,410 L 97,412 L 32,412 L 32,413 L 31,414 L 31,422 L 32,423 L 32,425 L 33,426 L 33,427 L 34,428 L 34,429 L 41,436 L 43,436 L 44,437 L 46,437 L 47,438 L 416,438 L 417,437 L 419,437 L 420,436 L 421,436 L 422,435 L 423,435 L 429,429 L 429,428 L 430,427 L 430,425 L 431,424 L 431,422 L 432,421 L 432,417 L 433,416 L 433,415 L 432,414 L 432,412 L 387,412 L 386,411 L 387,410 L 390,410 L 391,409 L 393,409 L 394,408 L 395,408 L 396,407 L 398,407 L 399,406 L 400,406 L 401,405 L 402,405 L 403,404 L 404,404 L 405,403 L 406,403 L 407,402 L 409,402 L 411,400 L 412,400 L 413,399 L 414,399 L 415,398 L 416,398 L 418,396 L 419,396 L 420,395 L 421,395 L 423,393 L 424,393 L 426,391 L 427,391 L 432,386 L 433,386 L 449,370 L 449,369 L 453,365 L 453,364 L 456,361 L 456,360 L 459,357 L 459,356 L 460,355 L 460,354 L 462,352 L 462,351 L 463,350 L 463,349 L 464,348 L 464,347 L 465,346 L 465,345 L 466,344 L 466,343 L 467,342 L 467,341 L 468,340 L 468,338 L 469,337 L 469,335 L 470,334 L 470,332 L 471,331 L 471,329 L 472,328 L 472,326 L 473,325 L 473,322 L 474,321 L 474,318 L 475,317 L 475,313 L 476,312 L 476,305 L 477,304 L 477,288 L 476,287 L 476,280 L 475,279 L 475,275 L 474,274 L 474,271 L 473,270 L 473,267 L 472,266 L 472,264 L 471,263 L 471,261 L 470,260 L 470,258 L 469,257 L 469,256 L 468,255 L 468,254 L 467,253 L 467,252 L 466,251 L 466,250 L 465,249 L 465,248 L 463,246 L 463,245 L 461,243 L 461,242 L 459,240 L 459,239 L 446,226 L 445,226 L 443,224 L 442,224 L 440,222 L 439,222 L 438,221 L 437,221 L 435,219 L 434,219 L 433,218 L 431,218 L 430,217 L 428,217 L 427,216 L 424,216 L 423,215 L 412,215 L 411,216 L 408,216 L 407,217 L 406,217 L 405,218 L 403,218 L 401,220 L 400,220 L 393,227 L 393,228 L 391,230 L 391,232 L 390,233 L 390,235 L 389,236 L 389,246 L 390,247 L 390,250 L 391,251 L 391,252 L 392,253 L 392,255 L 393,256 L 393,257 L 395,259 L 395,260 L 405,270 L 406,270 L 409,273 L 410,273 L 417,280 L 417,281 L 419,283 L 419,284 L 420,285 L 420,286 L 421,287 L 421,289 L 422,290 L 422,292 L 423,293 L 423,298 L 424,299 L 424,307 L 423,308 L 423,315 L 422,316 L 422,319 L 421,320 L 421,322 L 420,323 L 420,325 L 419,326 L 419,327 L 418,328 L 418,329 L 417,330 L 417,331 L 416,332 L 416,333 L 414,335 L 414,336 L 412,338 L 412,339 L 410,341 L 410,342 L 405,347 L 405,348 L 403,350 L 402,350 L 394,358 L 393,358 L 389,362 L 388,362 L 386,364 L 385,364 L 383,366 L 382,366 L 381,367 L 380,367 L 378,369 L 377,369 L 376,370 L 375,370 L 373,372 L 372,372 L 371,373 L 370,373 L 369,374 L 368,374 L 367,375 L 366,375 L 365,376 L 363,376 L 362,375 L 362,373 L 363,372 L 363,368 L 364,367 L 364,363 L 365,362 L 365,357 L 366,356 L 366,352 L 367,351 L 367,346 L 368,345 L 368,341 L 369,340 L 369,335 L 370,334 L 370,329 L 371,328 L 371,322 L 372,321 L 372,317 L 373,316 L 373,311 L 374,310 L 374,306 L 375,305 L 375,300 L 376,299 L 376,295 L 377,294 L 377,289 L 378,288 L 378,284 L 379,283 L 379,277 L 380,276 L 380,271 L 381,270 L 381,264 L 380,263 L 380,259 L 379,258 L 379,257 L 378,256 L 378,255 L 373,250 L 372,250 L 371,249 L 370,249 L 369,248 L 366,248 L 365,247 L 326,247 L 325,246 L 325,243 L 324,242 L 324,239 L 323,238 L 323,237 L 321,235 L 321,234 L 316,229 L 317,228 L 318,228 L 319,227 L 320,227 L 321,226 L 322,226 L 324,224 L 325,224 L 326,223 L 327,223 L 328,222 L 329,222 L 331,220 L 332,220 L 334,218 L 335,218 L 337,216 L 338,216 L 340,214 L 341,214 L 346,209 L 347,209 L 348,208 L 348,207 L 349,206 L 350,206 L 350,205 L 354,201 L 357,201 L 358,202 L 359,202 L 360,203 L 361,203 L 362,204 L 363,204 L 364,205 L 365,205 L 366,206 L 367,206 L 369,208 L 370,208 L 371,209 L 372,209 L 374,211 L 375,211 L 377,213 L 378,213 L 380,215 L 383,215 L 386,212 L 386,211 L 385,210 L 385,209 L 381,205 L 380,205 L 378,203 L 377,203 L 376,202 L 375,202 L 373,200 L 372,200 L 370,198 L 369,198 L 368,197 L 367,197 L 366,196 L 365,196 L 364,195 L 363,195 L 362,194 L 361,194 L 360,193 L 360,191 L 361,190 L 361,189 L 362,188 L 362,187 L 363,186 L 363,185 L 364,184 L 364,183 L 365,182 L 366,182 L 367,183 L 370,183 L 371,184 L 373,184 L 374,185 L 376,185 L 377,186 L 379,186 L 380,187 L 382,187 L 383,188 L 385,188 L 386,189 L 387,189 L 388,190 L 390,190 L 391,191 L 392,191 L 393,192 L 394,192 L 395,193 L 396,193 L 397,194 L 399,194 L 400,195 L 401,195 L 402,196 L 403,196 L 404,197 L 408,197 L 410,195 L 410,193 L 409,192 L 409,191 L 408,191 L 406,189 L 405,189 L 404,188 L 403,188 L 402,187 L 401,187 L 400,186 L 399,186 L 398,185 L 397,185 L 396,184 L 395,184 L 394,183 L 392,183 L 391,182 L 390,182 L 389,181 L 387,181 L 386,180 L 384,180 L 383,179 L 381,179 L 380,178 L 378,178 L 377,177 L 375,177 L 374,176 L 371,176 L 370,175 L 369,175 L 367,173 L 368,172 L 368,167 L 369,166 L 376,166 L 377,167 L 380,167 L 381,168 L 384,168 L 385,169 L 389,169 L 390,170 L 392,170 L 393,171 L 396,171 L 397,172 L 400,172 L 401,173 L 403,173 L 404,174 L 405,174 L 406,175 L 408,175 L 409,176 L 410,176 L 411,177 L 413,177 L 414,178 L 417,178 L 418,179 L 421,176 L 421,173 L 418,170 L 417,170 L 416,169 L 415,169 L 414,168 L 413,168 L 412,167 L 410,167 L 409,166 L 408,166 L 407,165 L 405,165 L 404,164 L 402,164 L 401,163 L 398,163 L 397,162 L 395,162 L 394,161 L 390,161 L 389,160 L 386,160 L 385,159 L 380,159 L 379,158 L 373,158 L 372,157 L 369,157 L 368,156 L 368,154 L 367,153 L 367,149 L 366,148 L 366,145 L 365,144 L 365,142 L 364,141 L 364,139 L 363,138 L 363,137 L 362,136 L 362,135 L 361,134 L 361,133 L 360,132 L 360,131 L 359,130 L 359,129 L 358,128 L 358,127 L 357,126 L 357,125 L 355,123 L 355,108 L 356,107 L 356,106 L 355,105 L 355,84 L 354,83 L 354,75 L 353,74 L 353,69 L 352,68 L 352,64 L 351,63 L 351,59 L 350,58 L 350,55 L 349,54 L 349,51 L 348,50 L 348,48 L 347,47 L 347,45 L 346,44 L 346,42 L 345,41 L 345,39 L 344,38 L 344,37 L 343,36 L 343,35 L 342,34 L 342,33 L 340,31 L 340,30 L 337,27 L 336,27 L 335,26 L 329,26 L 328,27 L 326,27 L 325,28 L 324,28 L 323,29 L 321,29 L 320,30 L 319,30 L 317,32 L 316,32 L 315,33 L 314,33 L 313,34 L 312,34 L 311,35 L 310,35 L 308,37 L 307,37 L 305,39 L 304,39 L 302,41 L 301,41 L 300,42 L 299,42 L 296,45 L 295,45 L 292,48 L 291,48 L 289,50 L 288,50 L 284,54 L 283,54 L 278,59 L 277,59 L 273,63 L 269,63 L 268,62 L 265,62 L 264,61 L 260,61 L 259,60 L 254,60 L 253,59 L 243,59 L 242,58 L 221,58 L 220,59 L 210,59 L 209,60 L 204,60 L 203,61 L 200,61 L 199,62 L 195,62 L 194,63 L 189,63 L 185,59 L 184,59 L 181,56 L 180,56 L 175,51 L 174,51 L 171,48 L 170,48 L 167,45 L 166,45 L 164,43 L 163,43 L 161,41 L 160,41 L 158,39 L 157,39 L 156,38 L 155,38 L 153,36 L 152,36 L 151,35 L 150,35 L 148,33 L 147,33 L 146,32 L 145,32 L 144,31 L 143,31 L 142,30 L 141,30 L 140,29 L 139,29 L 138,28 L 137,28 L 136,27 L 133,27 L 132,26 Z" fill="#ffffff" stroke="#000000" stroke-width="3" />
</svg>
